<svg width="100%" height="100%" viewBox="250 215 545 395" fill="none" xmlns="http://www.w3.org/2000/svg">
  <path d="M 309.5 253.0 L 314.0 252.5 L 315.0 253.5 L 318.0 253.5 L 327.0 258.5 L 332.5 264.0 L 337.5 274.0 L 337.5 286.0 L 336.5 287.0 L 336.5 290.0 L 325.5 312.0 L 325.5 314.0 L 324.5 315.0 L 324.5 319.0 L 323.5 320.0 L 323.5 329.0 L 324.5 330.0 L 324.5 333.0 L 326.5 337.0 L 329.0 339.5 L 330.0 339.5 L 331.5 338.0 L 332.5 333.0 L 337.5 324.0 L 345.0 316.5 L 346.0 316.5 L 348.0 314.5 L 352.0 312.5 L 357.0 311.5 L 358.0 310.5 L 371.0 310.5 L 372.0 311.5 L 378.0 312.5 L 379.5 314.0 L 379.5 315.0 L 371.0 318.5 L 368.0 321.5 L 367.0 321.5 L 364.0 324.5 L 363.0 324.5 L 357.5 331.0 L 352.5 342.0 L 352.5 345.0 L 351.5 346.0 L 351.5 353.0 L 352.5 354.0 L 352.5 358.0 L 356.5 366.0 L 363.0 372.5 L 367.0 374.5 L 369.0 374.5 L 370.0 375.5 L 373.0 375.5 L 374.0 376.5 L 379.0 376.5 L 380.0 375.5 L 383.0 375.5 L 387.0 373.5 L 390.0 370.5 L 391.0 370.5 L 395.5 363.0 L 395.5 361.0 L 396.5 360.0 L 396.5 354.0 L 395.5 353.0 L 395.5 351.0 L 393.5 347.0 L 390.0 343.5 L 385.0 341.5 L 383.5 340.0 L 384.0 339.5 L 396.0 339.5 L 397.0 340.5 L 401.0 341.5 L 404.0 344.5 L 405.0 344.5 L 405.5 346.0 L 408.5 349.0 L 409.5 353.0 L 410.5 354.0 L 410.5 356.0 L 411.5 357.0 L 411.5 371.0 L 410.5 372.0 L 409.5 377.0 L 406.5 383.0 L 404.5 385.0 L 402.5 389.0 L 398.5 393.0 L 398.5 394.0 L 367.5 424.0 L 367.5 425.0 L 363.5 429.0 L 361.5 433.0 L 358.5 436.0 L 355.5 442.0 L 353.5 444.0 L 349.5 452.0 L 349.5 454.0 L 347.5 457.0 L 347.5 459.0 L 345.5 463.0 L 345.5 466.0 L 344.5 467.0 L 344.5 470.0 L 343.5 471.0 L 343.5 476.0 L 342.5 477.0 L 342.5 498.0 L 343.5 499.0 L 343.5 504.0 L 345.5 508.0 L 345.5 511.0 L 350.5 521.0 L 352.5 523.0 L 353.5 526.0 L 355.5 528.0 L 355.5 529.0 L 364.0 537.5 L 365.0 537.5 L 370.0 541.5 L 376.0 544.5 L 381.0 545.5 L 382.0 546.5 L 385.0 546.5 L 386.0 547.5 L 391.0 547.5 L 392.0 548.5 L 395.5 549.0 L 394.0 550.5 L 392.0 550.5 L 391.0 551.5 L 388.0 551.5 L 387.0 552.5 L 380.0 552.5 L 379.0 553.5 L 373.0 553.5 L 372.0 552.5 L 365.0 552.5 L 364.0 551.5 L 360.0 551.5 L 359.0 550.5 L 354.0 549.5 L 349.0 546.5 L 345.0 545.5 L 343.0 543.5 L 337.0 540.5 L 323.5 528.0 L 323.5 527.0 L 318.5 521.0 L 317.5 518.0 L 314.5 514.0 L 314.5 512.0 L 312.5 509.0 L 312.5 507.0 L 310.5 503.0 L 310.5 499.0 L 309.5 498.0 L 309.5 493.0 L 308.5 492.0 L 308.5 476.0 L 309.5 475.0 L 309.5 470.0 L 310.5 469.0 L 310.5 466.0 L 311.5 465.0 L 311.0 463.5 L 305.0 466.5 L 299.5 472.0 L 294.5 481.0 L 294.5 485.0 L 293.5 486.0 L 293.5 494.0 L 294.5 495.0 L 294.5 499.0 L 295.5 501.0 L 294.0 502.5 L 285.5 495.0 L 285.5 494.0 L 281.5 489.0 L 279.5 485.0 L 279.5 483.0 L 278.5 482.0 L 278.5 478.0 L 277.5 477.0 L 277.5 465.0 L 278.5 464.0 L 278.5 461.0 L 283.5 451.0 L 289.5 443.0 L 293.5 435.0 L 293.5 426.0 L 292.5 425.0 L 292.5 423.0 L 289.5 419.0 L 289.5 418.0 L 283.5 411.0 L 282.5 408.0 L 279.5 404.0 L 279.5 402.0 L 277.5 398.0 L 277.5 382.0 L 278.5 381.0 L 278.5 379.0 L 279.5 378.0 L 279.5 376.0 L 281.5 372.0 L 282.0 371.5 L 283.5 374.0 L 283.5 378.0 L 285.5 381.0 L 285.5 383.0 L 287.5 385.0 L 289.5 389.0 L 295.0 394.5 L 301.0 397.5 L 306.0 398.5 L 307.0 399.5 L 318.0 399.5 L 319.0 398.5 L 320.5 399.0 L 317.5 405.0 L 317.5 407.0 L 315.5 411.0 L 315.5 415.0 L 314.5 416.0 L 314.5 425.0 L 315.5 426.0 L 315.5 430.0 L 316.5 431.0 L 316.5 433.0 L 319.0 438.5 L 320.5 438.0 L 320.5 435.0 L 321.5 434.0 L 321.5 431.0 L 322.5 430.0 L 323.5 425.0 L 327.5 417.0 L 330.5 414.0 L 330.5 413.0 L 342.0 401.5 L 343.0 401.5 L 351.0 394.5 L 352.0 394.5 L 354.0 392.5 L 358.5 390.0 L 358.0 388.5 L 349.0 388.5 L 348.0 387.5 L 345.0 387.5 L 339.0 384.5 L 332.5 378.0 L 330.5 374.0 L 330.5 372.0 L 329.5 371.0 L 329.5 356.0 L 330.5 355.0 L 330.0 354.5 L 328.0 354.5 L 320.5 362.0 L 317.5 368.0 L 316.0 378.5 L 315.0 378.5 L 306.5 371.0 L 306.5 370.0 L 302.5 366.0 L 297.5 356.0 L 297.5 354.0 L 296.5 353.0 L 296.5 351.0 L 294.5 347.0 L 294.5 342.0 L 293.5 341.0 L 293.5 326.0 L 294.5 325.0 L 294.5 320.0 L 295.5 319.0 L 297.5 311.0 L 301.5 303.0 L 309.5 293.0 L 310.5 290.0 L 312.5 288.0 L 315.5 282.0 L 316.5 276.0 L 317.5 275.0 L 317.5 266.0 L 316.5 265.0 L 316.5 263.0 L 312.5 256.0 Z M 708.5 253.0 L 713.5 253.0 L 709.5 258.0 L 706.5 264.0 L 706.5 277.0 L 707.5 278.0 L 707.5 280.0 L 709.5 283.0 L 710.5 287.0 L 722.5 304.0 L 726.5 312.0 L 727.5 318.0 L 728.5 319.0 L 728.5 322.0 L 729.5 323.0 L 729.5 331.0 L 730.5 333.0 L 729.5 334.0 L 729.5 344.0 L 728.5 345.0 L 727.5 353.0 L 725.5 356.0 L 725.5 358.0 L 723.5 362.0 L 721.5 364.0 L 719.5 368.0 L 709.0 378.5 L 707.5 377.0 L 707.5 375.0 L 706.5 374.0 L 706.5 369.0 L 705.5 368.0 L 705.5 366.0 L 703.5 362.0 L 697.0 355.5 L 694.0 354.5 L 693.5 357.0 L 694.5 358.0 L 694.5 369.0 L 693.5 370.0 L 693.5 372.0 L 692.5 373.0 L 692.5 375.0 L 690.5 379.0 L 685.0 384.5 L 679.0 387.5 L 676.0 387.5 L 675.0 388.5 L 664.5 389.0 L 670.0 393.5 L 673.0 394.5 L 682.0 402.5 L 683.0 402.5 L 687.0 406.5 L 688.0 406.5 L 688.5 408.0 L 692.5 412.0 L 692.5 413.0 L 699.5 423.0 L 699.5 425.0 L 701.5 428.0 L 702.5 436.0 L 703.5 437.0 L 704.0 439.5 L 706.5 435.0 L 706.5 433.0 L 707.5 432.0 L 707.5 428.0 L 708.5 427.0 L 708.5 413.0 L 707.5 412.0 L 706.5 406.0 L 702.5 399.0 L 704.0 398.5 L 705.0 399.5 L 716.0 399.5 L 717.0 398.5 L 720.0 398.5 L 721.0 397.5 L 723.0 397.5 L 727.0 395.5 L 729.0 393.5 L 730.0 393.5 L 736.5 386.0 L 739.5 380.0 L 740.5 374.0 L 742.0 373.5 L 743.5 375.0 L 743.5 377.0 L 745.5 380.0 L 745.5 384.0 L 746.5 385.0 L 746.5 396.0 L 745.5 397.0 L 745.5 400.0 L 744.5 401.0 L 744.5 403.0 L 742.5 407.0 L 730.5 424.0 L 730.5 436.0 L 733.5 442.0 L 740.5 452.0 L 744.5 460.0 L 744.5 462.0 L 745.5 463.0 L 745.5 469.0 L 746.5 470.0 L 745.5 480.0 L 744.5 481.0 L 743.5 486.0 L 741.5 490.0 L 737.5 495.0 L 737.5 496.0 L 729.0 502.5 L 728.5 499.0 L 729.5 498.0 L 729.5 482.0 L 727.5 479.0 L 727.5 477.0 L 725.5 475.0 L 723.5 471.0 L 719.0 466.5 L 713.0 463.5 L 712.5 466.0 L 713.5 467.0 L 713.5 471.0 L 714.5 472.0 L 714.5 480.0 L 715.5 481.0 L 715.5 488.0 L 714.5 489.0 L 714.5 495.0 L 713.5 496.0 L 713.5 500.0 L 712.5 501.0 L 712.5 504.0 L 711.5 505.0 L 711.5 508.0 L 709.5 511.0 L 709.5 513.0 L 706.5 519.0 L 704.5 521.0 L 702.5 525.0 L 699.5 528.0 L 699.5 529.0 L 691.0 537.5 L 690.0 537.5 L 687.0 540.5 L 684.0 541.5 L 682.0 543.5 L 674.0 547.5 L 672.0 547.5 L 671.0 548.5 L 669.0 548.5 L 665.0 550.5 L 662.0 550.5 L 661.0 551.5 L 656.0 551.5 L 655.0 552.5 L 643.0 552.5 L 642.0 551.5 L 635.0 551.5 L 634.0 550.5 L 631.0 550.5 L 629.5 549.0 L 630.0 547.5 L 636.0 547.5 L 637.0 546.5 L 640.0 546.5 L 641.0 545.5 L 646.0 544.5 L 656.0 539.5 L 658.0 537.5 L 659.0 537.5 L 669.5 527.0 L 669.5 526.0 L 671.5 524.0 L 675.5 517.0 L 675.5 515.0 L 677.5 512.0 L 677.5 510.0 L 679.5 506.0 L 679.5 503.0 L 680.5 502.0 L 680.5 497.0 L 681.5 496.0 L 681.5 480.0 L 680.5 479.0 L 680.5 474.0 L 679.5 473.0 L 679.5 469.0 L 678.5 468.0 L 677.5 461.0 L 676.5 460.0 L 675.5 455.0 L 668.5 441.0 L 666.5 439.0 L 662.5 432.0 L 659.5 429.0 L 659.5 428.0 L 655.5 424.0 L 655.5 423.0 L 623.5 392.0 L 623.5 391.0 L 620.5 388.0 L 617.5 382.0 L 615.5 380.0 L 615.5 378.0 L 612.5 372.0 L 612.5 368.0 L 611.5 367.0 L 612.5 356.0 L 613.5 355.0 L 614.5 350.0 L 617.5 347.0 L 617.5 346.0 L 623.0 341.5 L 627.0 339.5 L 640.0 339.5 L 640.0 340.5 L 635.0 342.5 L 629.5 348.0 L 628.5 350.0 L 628.5 352.0 L 627.5 353.0 L 627.5 362.0 L 630.5 368.0 L 638.0 374.5 L 640.0 374.5 L 641.0 375.5 L 645.0 375.5 L 646.0 376.5 L 656.0 374.5 L 663.0 370.5 L 665.5 368.0 L 665.5 367.0 L 668.5 364.0 L 670.5 360.0 L 670.5 358.0 L 671.5 357.0 L 671.5 351.0 L 672.5 350.0 L 671.5 348.0 L 671.5 343.0 L 665.5 330.0 L 657.0 321.5 L 656.0 321.5 L 651.0 317.5 L 647.0 315.5 L 645.0 315.5 L 643.5 314.0 L 648.0 311.5 L 651.0 311.5 L 652.0 310.5 L 665.0 310.5 L 666.0 311.5 L 669.0 311.5 L 670.0 312.5 L 674.0 313.5 L 676.0 315.5 L 680.0 317.5 L 685.5 323.0 L 685.5 324.0 L 688.5 327.0 L 690.5 331.0 L 690.5 333.0 L 692.5 336.0 L 692.5 338.0 L 694.0 339.5 L 695.0 339.5 L 697.5 337.0 L 698.5 333.0 L 699.5 332.0 L 699.5 317.0 L 698.5 316.0 L 698.5 313.0 L 693.5 304.0 L 693.5 302.0 L 691.5 300.0 L 689.5 296.0 L 689.5 294.0 L 687.5 291.0 L 687.5 289.0 L 686.5 288.0 L 686.5 284.0 L 685.5 283.0 L 685.5 276.0 L 686.5 275.0 L 686.5 272.0 L 689.5 266.0 L 693.5 262.0 L 693.5 261.0 L 701.0 255.5 Z M 630.5 262.0 L 631.5 262.0 L 621.0 272.5 L 620.5 272.0 Z M 605.5 265.0 L 606.5 265.0 L 593.0 278.5 L 592.5 278.0 Z M 394.5 305.0 L 395.0 304.5 L 404.5 314.0 L 404.0 314.5 Z M 430.5 438.0 L 431.5 438.0 L 421.0 448.5 L 420.5 448.0 Z M 413.5 476.0 L 552.5 476.0 Z M 792.5 675.0 L 793.5 675.0 L 793.0 754.5 Z M 252.5 694.0 L 253.5 694.0 L 253.0 712.5 Z M 588.5 694.0 L 589.5 694.0 L 589.0 753.5 Z M 611.5 694.0 L 612.5 694.0 L 612.0 739.5 Z M 253.5 733.0 L 272.5 733.0 L 253.5 734.0 L 253.0 753.5 L 252.5 734.0 Z" fill="#C25E3B" fill-rule="evenodd" />
  <path d="M 507.5 218.0 L 517.0 217.5 L 520.0 219.5 L 523.0 219.5 L 525.0 220.5 L 533.5 228.0 L 539.5 240.0 L 539.5 249.0 L 538.5 250.0 L 538.5 253.0 L 536.5 256.0 L 536.5 258.0 L 533.5 263.0 L 533.5 265.0 L 531.5 267.0 L 529.5 272.0 L 527.5 274.0 L 527.5 275.0 L 525.5 277.0 L 525.5 278.0 L 523.5 280.0 L 523.5 281.0 L 521.5 283.0 L 517.5 290.0 L 512.0 295.5 L 509.0 294.5 L 507.5 293.0 L 507.5 292.0 L 504.5 289.0 L 504.5 288.0 L 500.5 283.0 L 499.5 280.0 L 494.5 274.0 L 493.5 271.0 L 491.5 269.0 L 489.5 265.0 L 489.5 263.0 L 487.5 260.0 L 487.5 258.0 L 485.5 255.0 L 485.5 252.0 L 484.5 251.0 L 484.5 239.0 L 487.5 233.0 L 487.5 231.0 L 497.0 221.5 L 501.0 219.5 Z M 505.5 232.0 L 517.0 231.5 L 523.5 237.0 L 525.5 241.0 L 525.5 249.0 L 523.5 253.0 L 520.0 256.5 L 516.0 257.5 L 515.0 258.5 L 509.0 258.5 L 503.0 255.5 L 499.5 252.0 L 499.5 250.0 L 497.5 246.0 L 497.5 243.0 L 501.5 235.0 Z M 609.5 234.0 L 611.0 233.5 L 613.5 236.0 L 612.5 239.0 L 597.0 253.5 L 596.0 253.5 L 585.0 264.5 L 584.0 264.5 L 579.0 269.5 L 578.0 269.5 L 577.0 271.5 L 575.5 272.0 L 575.5 273.0 L 573.5 275.0 L 573.5 279.0 L 576.0 280.5 L 580.0 279.5 L 586.0 273.5 L 587.0 273.5 L 593.0 267.5 L 594.0 267.5 L 602.0 259.5 L 603.0 259.5 L 615.0 247.5 L 616.0 247.5 L 620.0 244.5 L 622.0 244.5 L 623.5 247.0 L 621.5 251.0 L 620.0 251.5 L 619.0 253.5 L 618.0 253.5 L 587.0 283.5 L 585.5 284.0 L 585.5 285.0 L 583.5 287.0 L 583.5 290.0 L 586.0 292.5 L 590.0 291.5 L 621.0 261.5 L 622.0 261.5 L 628.0 255.5 L 630.0 254.5 L 632.0 254.5 L 633.5 256.0 L 633.5 258.0 L 631.5 260.0 L 631.5 261.0 L 595.5 297.0 L 594.5 299.0 L 595.5 303.0 L 600.0 303.5 L 606.0 297.5 L 607.0 297.5 L 608.5 296.0 L 608.5 295.0 L 620.0 283.5 L 621.0 283.5 L 634.0 269.5 L 635.0 269.5 L 638.0 266.5 L 642.5 267.0 L 642.5 271.0 L 641.5 273.0 L 633.5 282.0 L 633.5 283.0 L 629.5 287.0 L 629.5 288.0 L 625.5 292.0 L 625.5 293.0 L 621.5 297.0 L 621.5 298.0 L 617.5 302.0 L 617.5 303.0 L 604.0 317.5 L 593.0 323.5 L 590.0 323.5 L 586.0 325.5 L 578.0 325.5 L 577.0 324.5 L 574.0 324.5 L 573.0 323.5 L 562.0 323.5 L 560.0 325.5 L 556.0 327.5 L 553.0 330.5 L 550.0 331.5 L 549.5 333.0 L 548.0 333.5 L 544.0 337.5 L 541.0 338.5 L 538.0 341.5 L 537.0 341.5 L 532.5 346.0 L 532.5 350.0 L 538.0 355.5 L 541.0 356.5 L 543.0 358.5 L 546.0 359.5 L 548.0 361.5 L 556.0 365.5 L 559.0 368.5 L 560.0 368.5 L 565.0 372.5 L 568.0 373.5 L 570.0 375.5 L 578.0 379.5 L 583.0 383.5 L 591.0 387.5 L 599.0 393.5 L 602.0 394.5 L 604.0 396.5 L 607.0 397.5 L 609.0 399.5 L 616.0 403.5 L 621.5 409.0 L 621.5 411.0 L 622.5 412.0 L 622.5 420.0 L 619.0 425.5 L 618.0 425.5 L 616.0 427.5 L 613.0 427.5 L 612.0 428.5 L 605.0 427.5 L 601.0 425.5 L 598.0 422.5 L 597.0 422.5 L 591.0 417.5 L 590.0 417.5 L 581.0 409.5 L 575.0 406.5 L 564.0 397.5 L 563.0 397.5 L 557.0 392.5 L 556.0 392.5 L 552.0 388.5 L 551.0 388.5 L 545.0 383.5 L 538.0 379.5 L 523.0 367.5 L 522.0 367.5 L 520.0 365.5 L 513.0 361.5 L 505.0 365.5 L 496.0 373.5 L 495.0 373.5 L 487.0 380.5 L 486.0 380.5 L 483.0 383.5 L 482.0 383.5 L 479.0 386.5 L 478.0 386.5 L 473.0 391.5 L 472.0 391.5 L 453.0 407.5 L 452.0 407.5 L 449.0 410.5 L 448.0 410.5 L 445.0 413.5 L 444.0 413.5 L 440.0 417.5 L 436.0 419.5 L 427.0 427.5 L 423.0 429.5 L 414.0 429.5 L 407.5 424.0 L 406.5 420.0 L 405.5 419.0 L 405.5 415.0 L 411.0 406.5 L 412.0 406.5 L 415.0 403.5 L 420.0 401.5 L 426.0 396.5 L 429.0 395.5 L 436.0 389.5 L 442.0 386.5 L 445.0 383.5 L 448.0 382.5 L 451.0 379.5 L 457.0 376.5 L 460.0 373.5 L 461.0 373.5 L 463.0 371.5 L 464.0 371.5 L 466.0 369.5 L 473.0 365.5 L 479.0 360.5 L 485.0 357.5 L 491.5 352.0 L 492.5 350.0 L 492.5 347.0 L 481.0 337.5 L 479.0 337.5 L 473.0 332.5 L 467.0 329.5 L 462.0 325.5 L 460.0 325.5 L 459.0 324.5 L 455.0 324.5 L 454.0 325.5 L 449.0 325.5 L 448.0 326.5 L 445.0 326.5 L 444.0 327.5 L 435.0 327.5 L 434.0 326.5 L 424.0 325.5 L 421.0 323.5 L 419.0 323.5 L 413.0 320.5 L 407.0 315.5 L 406.0 315.5 L 393.5 303.0 L 393.5 302.0 L 390.5 299.0 L 389.5 296.0 L 387.5 294.0 L 387.5 292.0 L 385.5 290.0 L 385.5 288.0 L 383.5 285.0 L 383.5 283.0 L 381.5 279.0 L 381.5 274.0 L 380.5 273.0 L 380.5 262.0 L 381.5 261.0 L 381.5 258.0 L 385.5 250.0 L 390.0 245.5 L 391.0 245.5 L 393.0 243.5 L 395.0 243.5 L 398.0 241.5 L 401.0 241.5 L 402.0 240.5 L 414.0 240.5 L 415.0 241.5 L 420.0 241.5 L 424.0 243.5 L 427.0 243.5 L 434.0 247.5 L 436.0 247.5 L 438.0 249.5 L 446.0 253.5 L 450.0 257.5 L 451.0 257.5 L 457.5 263.0 L 457.5 264.0 L 461.5 268.0 L 461.5 269.0 L 465.5 274.0 L 468.5 280.0 L 468.5 282.0 L 469.5 283.0 L 469.5 285.0 L 471.5 289.0 L 471.5 309.0 L 478.0 315.5 L 484.0 318.5 L 487.0 321.5 L 488.0 321.5 L 491.0 324.5 L 495.0 326.5 L 498.0 329.5 L 501.0 330.5 L 508.0 335.5 L 515.0 335.5 L 519.0 333.5 L 529.0 325.5 L 530.0 325.5 L 534.0 321.5 L 535.0 321.5 L 547.5 311.0 L 549.5 307.0 L 549.5 287.0 L 550.5 286.0 L 550.5 284.0 L 551.5 283.0 L 552.5 279.0 L 557.5 273.0 L 557.5 272.0 L 574.0 257.5 L 575.0 257.5 L 577.0 255.5 L 581.0 253.5 L 584.0 250.5 L 585.0 250.5 L 587.0 248.5 L 594.0 244.5 L 604.0 236.5 Z M 510.5 386.0 L 515.0 385.5 L 519.0 387.5 L 524.5 393.0 L 524.5 395.0 L 525.5 396.0 L 525.5 402.0 L 524.5 403.0 L 523.5 407.0 L 525.0 409.5 L 527.0 410.5 L 532.0 410.5 L 533.0 411.5 L 539.0 411.5 L 540.0 412.5 L 543.0 412.5 L 544.0 413.5 L 547.0 413.5 L 548.0 414.5 L 555.0 415.5 L 558.0 417.5 L 561.0 417.5 L 568.0 421.5 L 570.0 421.5 L 572.0 423.5 L 576.0 425.5 L 578.0 425.5 L 583.0 429.5 L 586.0 430.5 L 594.0 437.5 L 595.0 437.5 L 606.5 450.0 L 606.5 453.0 L 604.0 454.5 L 422.0 454.5 L 419.5 453.0 L 420.5 449.0 L 435.0 434.5 L 436.0 434.5 L 442.0 429.5 L 447.0 427.5 L 449.0 425.5 L 461.0 419.5 L 463.0 419.5 L 466.0 417.5 L 468.0 417.5 L 471.0 415.5 L 475.0 415.5 L 478.0 413.5 L 482.0 413.5 L 483.0 412.5 L 486.0 412.5 L 487.0 411.5 L 493.0 411.5 L 494.0 410.5 L 498.0 410.5 L 500.0 409.5 L 500.5 407.0 L 501.5 406.0 L 499.5 403.0 L 499.5 395.0 L 500.5 393.0 L 506.0 387.5 Z M 405.5 463.0 L 622.0 462.5 L 625.5 465.0 L 626.5 467.0 L 626.5 471.0 L 623.0 475.5 L 621.0 475.5 L 620.0 476.5 L 595.0 476.5 L 594.0 475.5 L 593.0 476.5 L 592.0 475.5 L 579.0 475.5 L 578.0 476.5 L 577.0 475.5 L 568.0 475.5 L 567.0 476.5 L 566.0 475.5 L 562.0 475.5 L 561.0 476.5 L 560.0 475.5 L 556.0 475.5 L 555.0 476.5 L 553.0 476.5 L 552.0 475.5 L 414.0 475.5 L 413.0 476.5 L 406.0 476.5 L 405.0 475.5 L 403.0 475.5 L 399.5 472.0 L 399.5 467.0 L 400.5 465.0 Z M 375.5 480.0 L 379.0 479.5 L 380.0 480.5 L 389.0 481.5 L 392.0 483.5 L 394.0 483.5 L 398.0 485.5 L 407.0 492.5 L 408.0 492.5 L 409.5 491.0 L 410.5 488.0 L 415.0 484.5 L 473.0 484.5 L 474.0 483.5 L 475.0 484.5 L 478.0 484.5 L 479.0 483.5 L 483.0 483.5 L 484.0 484.5 L 486.0 484.5 L 487.0 483.5 L 493.0 483.5 L 494.0 484.5 L 505.0 484.5 L 506.0 483.5 L 512.0 483.5 L 513.0 484.5 L 514.0 483.5 L 516.0 484.5 L 523.0 484.5 L 524.0 483.5 L 526.0 484.5 L 528.0 484.5 L 529.0 483.5 L 533.0 483.5 L 534.0 484.5 L 536.0 484.5 L 537.0 483.5 L 538.0 484.5 L 539.0 483.5 L 541.0 483.5 L 542.0 484.5 L 548.0 484.5 L 549.0 483.5 L 551.0 483.5 L 552.0 484.5 L 554.0 484.5 L 555.0 483.5 L 580.0 483.5 L 581.0 484.5 L 584.0 484.5 L 585.0 483.5 L 589.0 483.5 L 590.0 484.5 L 592.0 483.5 L 606.0 483.5 L 607.0 484.5 L 610.0 484.5 L 612.0 485.5 L 615.5 489.0 L 615.5 491.0 L 617.0 492.5 L 619.0 492.5 L 631.0 483.5 L 633.0 483.5 L 636.0 481.5 L 643.0 480.5 L 644.0 479.5 L 651.0 480.5 L 655.0 482.5 L 657.5 486.0 L 657.5 490.0 L 656.5 492.0 L 652.0 495.5 L 646.0 495.5 L 645.0 496.5 L 642.0 496.5 L 641.0 497.5 L 638.0 497.5 L 635.0 499.5 L 633.0 499.5 L 631.0 501.5 L 627.0 503.5 L 621.5 509.0 L 619.5 513.0 L 618.5 518.0 L 617.5 519.0 L 617.5 547.0 L 616.5 548.0 L 616.5 553.0 L 615.5 554.0 L 615.5 557.0 L 614.5 558.0 L 613.5 563.0 L 611.5 566.0 L 611.5 568.0 L 609.5 570.0 L 609.5 572.0 L 607.5 574.0 L 605.5 578.0 L 601.5 582.0 L 601.5 583.0 L 600.0 583.5 L 599.5 585.0 L 598.0 585.5 L 595.0 589.5 L 594.0 589.5 L 587.0 595.5 L 579.0 599.5 L 577.0 599.5 L 574.0 601.5 L 570.0 601.5 L 567.0 603.5 L 558.0 603.5 L 557.0 604.5 L 472.0 604.5 L 471.0 603.5 L 462.0 603.5 L 461.0 602.5 L 458.0 602.5 L 457.0 601.5 L 453.0 601.5 L 450.0 599.5 L 448.0 599.5 L 445.0 597.5 L 443.0 597.5 L 441.0 595.5 L 439.0 595.5 L 435.0 591.5 L 434.0 591.5 L 420.5 578.0 L 420.5 577.0 L 417.5 574.0 L 415.5 569.0 L 413.5 567.0 L 413.5 565.0 L 409.5 557.0 L 409.5 552.0 L 408.5 551.0 L 408.5 547.0 L 407.5 546.0 L 407.5 517.0 L 405.5 514.0 L 405.5 512.0 L 401.5 507.0 L 401.5 506.0 L 396.0 501.5 L 392.0 499.5 L 390.0 499.5 L 387.0 497.5 L 384.0 497.5 L 383.0 496.5 L 380.0 496.5 L 379.0 495.5 L 374.0 495.5 L 369.5 493.0 L 367.5 489.0 L 367.5 487.0 L 372.0 481.5 Z M 429.5 511.0 L 430.0 510.5 L 432.0 511.5 L 435.5 516.0 L 435.5 541.0 L 436.5 542.0 L 437.5 550.0 L 438.5 551.0 L 439.5 556.0 L 441.5 560.0 L 443.5 562.0 L 445.5 566.0 L 449.5 570.0 L 449.5 571.0 L 462.5 583.0 L 461.0 584.5 L 460.0 583.5 L 456.0 583.5 L 445.0 577.5 L 437.5 570.0 L 433.5 563.0 L 433.5 561.0 L 431.5 559.0 L 431.5 557.0 L 429.5 553.0 L 429.5 549.0 L 427.5 545.0 L 427.5 537.0 L 426.5 536.0 L 426.5 521.0 L 427.5 520.0 L 427.5 514.0 Z" fill="#E5A93C" fill-rule="evenodd" />
</svg>
